<mxfile host="app.diagrams.net" agent="Mozilla/5.0 (Windows NT 10.0; Win64; x64) AppleWebKit/537.36 (KHTML, like Gecko) Chrome/135.0.0.0 Safari/537.36 OPR/120.0.0.0" version="28.0.9">
  <diagram name="Página-1" id="tQN3K0fjcN7LDT4bnmvT">
    <mxGraphModel dx="5777" dy="3069" grid="1" gridSize="10" guides="1" tooltips="1" connect="1" arrows="1" fold="1" page="1" pageScale="1" pageWidth="827" pageHeight="1169" math="0" shadow="0">
      <root>
        <mxCell id="0" />
        <mxCell id="1" parent="0" />
        <mxCell id="6TMwM8I6Ds__LiO6crbM-2" value="Definición: Paso a paso, modificando el estado del programa." style="rounded=1;whiteSpace=wrap;html=1;fillColor=#E6D0DE;" vertex="1" parent="1">
          <mxGeometry x="670" y="260" width="160" height="70" as="geometry" />
        </mxCell>
        <mxCell id="6TMwM8I6Ds__LiO6crbM-5" value="Ventajas:&lt;br data-end=&quot;310&quot; data-start=&quot;307&quot;&gt;&lt;br/&gt;Fácil de entender para principiantes.&lt;br data-end=&quot;350&quot; data-start=&quot;347&quot;&gt;&lt;br/&gt;Muy eficiente en tareas de bajo nivel.&lt;br data-end=&quot;391&quot; data-start=&quot;388&quot;&gt;&lt;br/&gt;Amplio soporte en lenguajes y herramientas." style="rounded=1;whiteSpace=wrap;html=1;fillColor=#E1D5E7;" vertex="1" parent="1">
          <mxGeometry x="470" y="430" width="280" height="120" as="geometry" />
        </mxCell>
        <mxCell id="6TMwM8I6Ds__LiO6crbM-6" value="Desventajas:&lt;br data-end=&quot;452&quot; data-start=&quot;449&quot;&gt;&lt;br/&gt;Código propenso a errores si crece demasiado.&lt;br data-end=&quot;500&quot; data-start=&quot;497&quot;&gt;&lt;br/&gt;Difícil de mantener y escalar en sistemas grandes.&lt;br data-end=&quot;553&quot; data-start=&quot;550&quot;&gt;&lt;br/&gt;Menor reutilización de componentes." style="rounded=1;whiteSpace=wrap;html=1;fillColor=#E1D5E7;" vertex="1" parent="1">
          <mxGeometry x="805" y="430" width="290" height="120" as="geometry" />
        </mxCell>
        <mxCell id="6TMwM8I6Ds__LiO6crbM-8" value="Subtipos:&lt;br data-end=&quot;603&quot; data-start=&quot;600&quot;&gt;&lt;br/&gt;Estructurada: bucles, condicionales, funciones.&lt;br data-end=&quot;653&quot; data-start=&quot;650&quot;&gt;&lt;br/&gt;Procedimental: funciones/procedimientos reutilizables.&lt;br data-end=&quot;710&quot; data-start=&quot;707&quot;&gt;&lt;br/&gt;Modular: código dividido en módulos." style="rounded=1;whiteSpace=wrap;html=1;fillColor=#E1D5E7;" vertex="1" parent="1">
          <mxGeometry x="1150" y="430" width="290" height="120" as="geometry" />
        </mxCell>
        <mxCell id="6TMwM8I6Ds__LiO6crbM-9" value="&lt;b&gt;&lt;font style=&quot;font-size: 24px;&quot;&gt;Imperativo&lt;/font&gt;&lt;/b&gt;" style="ellipse;whiteSpace=wrap;html=1;aspect=fixed;fillColor=#FFCCCC;" vertex="1" parent="1">
          <mxGeometry x="880" y="100" width="140" height="140" as="geometry" />
        </mxCell>
        <mxCell id="6TMwM8I6Ds__LiO6crbM-10" value="" style="endArrow=none;html=1;rounded=0;entryX=0.5;entryY=1;entryDx=0;entryDy=0;exitX=0.5;exitY=0;exitDx=0;exitDy=0;" edge="1" parent="1" source="6TMwM8I6Ds__LiO6crbM-6" target="6TMwM8I6Ds__LiO6crbM-9">
          <mxGeometry width="50" height="50" relative="1" as="geometry">
            <mxPoint x="980" y="350" as="sourcePoint" />
            <mxPoint x="1030" y="300" as="targetPoint" />
          </mxGeometry>
        </mxCell>
        <mxCell id="6TMwM8I6Ds__LiO6crbM-12" value="Ejemplos: C, C++, Java, Python (modo imperativo)." style="rounded=1;whiteSpace=wrap;html=1;fillColor=#E6D0DE;" vertex="1" parent="1">
          <mxGeometry x="1070" y="260" width="160" height="70" as="geometry" />
        </mxCell>
        <mxCell id="6TMwM8I6Ds__LiO6crbM-13" value="" style="endArrow=none;html=1;rounded=0;exitX=1;exitY=0.5;exitDx=0;exitDy=0;entryX=0;entryY=0.5;entryDx=0;entryDy=0;" edge="1" parent="1" source="6TMwM8I6Ds__LiO6crbM-2" target="6TMwM8I6Ds__LiO6crbM-12">
          <mxGeometry width="50" height="50" relative="1" as="geometry">
            <mxPoint x="1050" y="310" as="sourcePoint" />
            <mxPoint x="1100" y="260" as="targetPoint" />
          </mxGeometry>
        </mxCell>
        <mxCell id="6TMwM8I6Ds__LiO6crbM-14" value="" style="endArrow=none;html=1;rounded=0;" edge="1" parent="1">
          <mxGeometry width="50" height="50" relative="1" as="geometry">
            <mxPoint x="600" y="390" as="sourcePoint" />
            <mxPoint x="1300" y="390" as="targetPoint" />
          </mxGeometry>
        </mxCell>
        <mxCell id="6TMwM8I6Ds__LiO6crbM-15" value="" style="endArrow=none;html=1;rounded=0;exitX=0.463;exitY=0.029;exitDx=0;exitDy=0;exitPerimeter=0;" edge="1" parent="1" source="6TMwM8I6Ds__LiO6crbM-5">
          <mxGeometry width="50" height="50" relative="1" as="geometry">
            <mxPoint x="1090" y="480" as="sourcePoint" />
            <mxPoint x="600" y="390" as="targetPoint" />
          </mxGeometry>
        </mxCell>
        <mxCell id="6TMwM8I6Ds__LiO6crbM-16" value="" style="endArrow=none;html=1;rounded=0;exitX=0.463;exitY=0.029;exitDx=0;exitDy=0;exitPerimeter=0;" edge="1" parent="1">
          <mxGeometry width="50" height="50" relative="1" as="geometry">
            <mxPoint x="1300" y="433" as="sourcePoint" />
            <mxPoint x="1300" y="390" as="targetPoint" />
          </mxGeometry>
        </mxCell>
        <mxCell id="6TMwM8I6Ds__LiO6crbM-17" value="Definición: Se describe qué se quiere lograr, sin detallar los pasos." style="rounded=1;whiteSpace=wrap;html=1;fillColor=#E6D0DE;" vertex="1" parent="1">
          <mxGeometry x="-1240" y="270" width="160" height="70" as="geometry" />
        </mxCell>
        <mxCell id="6TMwM8I6Ds__LiO6crbM-18" value="Ventajas:&lt;br data-end=&quot;882&quot; data-start=&quot;879&quot;&gt;&lt;br/&gt;Código más claro y conciso.&lt;br data-end=&quot;912&quot; data-start=&quot;909&quot;&gt;&lt;br/&gt;Más fácil razonar sobre el resultado.&lt;br data-end=&quot;952&quot; data-start=&quot;949&quot;&gt;&lt;br/&gt;Reduce errores de control de flujo." style="rounded=1;whiteSpace=wrap;html=1;fillColor=#E1D5E7;" vertex="1" parent="1">
          <mxGeometry x="-1440" y="440" width="280" height="120" as="geometry" />
        </mxCell>
        <mxCell id="6TMwM8I6Ds__LiO6crbM-19" value="Desventajas:&lt;br data-end=&quot;1005&quot; data-start=&quot;1002&quot;&gt;&lt;br/&gt;Puede ser menos eficiente.&lt;br data-end=&quot;1034&quot; data-start=&quot;1031&quot;&gt;&lt;br/&gt;Curva de aprendizaje más alta.&lt;br data-end=&quot;1067&quot; data-start=&quot;1064&quot;&gt;&lt;br/&gt;Menos flexible en ciertas tareas." style="rounded=1;whiteSpace=wrap;html=1;fillColor=#E1D5E7;" vertex="1" parent="1">
          <mxGeometry x="-1105" y="440" width="290" height="120" as="geometry" />
        </mxCell>
        <mxCell id="6TMwM8I6Ds__LiO6crbM-20" value="Subtipos:&lt;br data-end=&quot;1115&quot; data-start=&quot;1112&quot;&gt;&lt;br/&gt;Funcional: funciones puras, sin efectos secundarios.&lt;br data-end=&quot;1170&quot; data-start=&quot;1167&quot;&gt;&lt;br/&gt;Lógico: basado en reglas lógicas." style="rounded=1;whiteSpace=wrap;html=1;fillColor=#E1D5E7;" vertex="1" parent="1">
          <mxGeometry x="-760" y="440" width="290" height="120" as="geometry" />
        </mxCell>
        <mxCell id="6TMwM8I6Ds__LiO6crbM-21" value="&lt;font style=&quot;font-size: 24px;&quot;&gt;&lt;b&gt;Declarativo&lt;/b&gt;&lt;/font&gt;" style="ellipse;whiteSpace=wrap;html=1;aspect=fixed;fillColor=#FFCCCC;" vertex="1" parent="1">
          <mxGeometry x="-1030" y="110" width="140" height="140" as="geometry" />
        </mxCell>
        <mxCell id="6TMwM8I6Ds__LiO6crbM-22" value="" style="endArrow=none;html=1;rounded=0;entryX=0.5;entryY=1;entryDx=0;entryDy=0;exitX=0.5;exitY=0;exitDx=0;exitDy=0;" edge="1" parent="1" source="6TMwM8I6Ds__LiO6crbM-19" target="6TMwM8I6Ds__LiO6crbM-21">
          <mxGeometry width="50" height="50" relative="1" as="geometry">
            <mxPoint x="-930" y="360" as="sourcePoint" />
            <mxPoint x="-880" y="310" as="targetPoint" />
          </mxGeometry>
        </mxCell>
        <mxCell id="6TMwM8I6Ds__LiO6crbM-23" value="Ejemplos: SQL, Prolog, Haskell." style="rounded=1;whiteSpace=wrap;html=1;fillColor=#E6D0DE;" vertex="1" parent="1">
          <mxGeometry x="-840" y="270" width="160" height="70" as="geometry" />
        </mxCell>
        <mxCell id="6TMwM8I6Ds__LiO6crbM-24" value="" style="endArrow=none;html=1;rounded=0;exitX=1;exitY=0.5;exitDx=0;exitDy=0;entryX=0;entryY=0.5;entryDx=0;entryDy=0;" edge="1" parent="1" source="6TMwM8I6Ds__LiO6crbM-17" target="6TMwM8I6Ds__LiO6crbM-23">
          <mxGeometry width="50" height="50" relative="1" as="geometry">
            <mxPoint x="-860" y="320" as="sourcePoint" />
            <mxPoint x="-810" y="270" as="targetPoint" />
          </mxGeometry>
        </mxCell>
        <mxCell id="6TMwM8I6Ds__LiO6crbM-25" value="" style="endArrow=none;html=1;rounded=0;" edge="1" parent="1">
          <mxGeometry width="50" height="50" relative="1" as="geometry">
            <mxPoint x="-1310" y="400" as="sourcePoint" />
            <mxPoint x="-610" y="400" as="targetPoint" />
          </mxGeometry>
        </mxCell>
        <mxCell id="6TMwM8I6Ds__LiO6crbM-26" value="" style="endArrow=none;html=1;rounded=0;exitX=0.463;exitY=0.029;exitDx=0;exitDy=0;exitPerimeter=0;" edge="1" parent="1" source="6TMwM8I6Ds__LiO6crbM-18">
          <mxGeometry width="50" height="50" relative="1" as="geometry">
            <mxPoint x="-820" y="490" as="sourcePoint" />
            <mxPoint x="-1310" y="400" as="targetPoint" />
          </mxGeometry>
        </mxCell>
        <mxCell id="6TMwM8I6Ds__LiO6crbM-27" value="" style="endArrow=none;html=1;rounded=0;exitX=0.463;exitY=0.029;exitDx=0;exitDy=0;exitPerimeter=0;" edge="1" parent="1">
          <mxGeometry width="50" height="50" relative="1" as="geometry">
            <mxPoint x="-610" y="443" as="sourcePoint" />
            <mxPoint x="-610" y="400" as="targetPoint" />
          </mxGeometry>
        </mxCell>
        <mxCell id="6TMwM8I6Ds__LiO6crbM-28" value="Definición: Organiza en objetos con atributos y métodos." style="rounded=1;whiteSpace=wrap;html=1;fillColor=#E6D0DE;" vertex="1" parent="1">
          <mxGeometry x="-280" y="580" width="160" height="70" as="geometry" />
        </mxCell>
        <mxCell id="6TMwM8I6Ds__LiO6crbM-29" value="Ventajas:&lt;br data-end=&quot;1342&quot; data-start=&quot;1339&quot;&gt;&lt;br/&gt;Favorece reutilización (herencia, polimorfismo).&lt;br data-end=&quot;1393&quot; data-start=&quot;1390&quot;&gt;&lt;br/&gt;Código modular y mantenible.&lt;br data-end=&quot;1424&quot; data-start=&quot;1421&quot;&gt;&lt;br/&gt;Cercano a la forma de pensar en el mundo real." style="rounded=1;whiteSpace=wrap;html=1;fillColor=#E1D5E7;" vertex="1" parent="1">
          <mxGeometry x="-310" y="760" width="280" height="120" as="geometry" />
        </mxCell>
        <mxCell id="6TMwM8I6Ds__LiO6crbM-31" value="Desventajas:&lt;br data-end=&quot;1488&quot; data-start=&quot;1485&quot;&gt;&lt;br/&gt;Complejidad extra en proyectos pequeños.&lt;br data-end=&quot;1531&quot; data-start=&quot;1528&quot;&gt;&lt;br/&gt;Mal uso de herencia = acoplamiento.&lt;br data-end=&quot;1569&quot; data-start=&quot;1566&quot;&gt;&lt;br/&gt;Mayor consumo de memoria." style="rounded=1;whiteSpace=wrap;html=1;fillColor=#E1D5E7;" vertex="1" parent="1">
          <mxGeometry x="20" y="760" width="290" height="120" as="geometry" />
        </mxCell>
        <mxCell id="6TMwM8I6Ds__LiO6crbM-32" value="&lt;b&gt;&lt;font style=&quot;font-size: 22px;&quot;&gt;Orientada a Objetos (POO)&lt;/font&gt;&lt;/b&gt;" style="ellipse;whiteSpace=wrap;html=1;aspect=fixed;fillColor=#FFCCCC;" vertex="1" parent="1">
          <mxGeometry x="-70" y="420" width="140" height="140" as="geometry" />
        </mxCell>
        <mxCell id="6TMwM8I6Ds__LiO6crbM-33" value="" style="endArrow=none;html=1;rounded=0;entryX=0.5;entryY=1;entryDx=0;entryDy=0;" edge="1" parent="1" target="6TMwM8I6Ds__LiO6crbM-32">
          <mxGeometry width="50" height="50" relative="1" as="geometry">
            <mxPoint y="710" as="sourcePoint" />
            <mxPoint x="80" y="620" as="targetPoint" />
          </mxGeometry>
        </mxCell>
        <mxCell id="6TMwM8I6Ds__LiO6crbM-34" value="Ejemplos: Java, C#, Python (POO)." style="rounded=1;whiteSpace=wrap;html=1;fillColor=#E6D0DE;" vertex="1" parent="1">
          <mxGeometry x="120" y="580" width="160" height="70" as="geometry" />
        </mxCell>
        <mxCell id="6TMwM8I6Ds__LiO6crbM-35" value="" style="endArrow=none;html=1;rounded=0;exitX=1;exitY=0.5;exitDx=0;exitDy=0;entryX=0;entryY=0.5;entryDx=0;entryDy=0;" edge="1" parent="1" source="6TMwM8I6Ds__LiO6crbM-28" target="6TMwM8I6Ds__LiO6crbM-34">
          <mxGeometry width="50" height="50" relative="1" as="geometry">
            <mxPoint x="100" y="630" as="sourcePoint" />
            <mxPoint x="150" y="580" as="targetPoint" />
          </mxGeometry>
        </mxCell>
        <mxCell id="6TMwM8I6Ds__LiO6crbM-36" value="" style="endArrow=none;html=1;rounded=0;" edge="1" parent="1">
          <mxGeometry width="50" height="50" relative="1" as="geometry">
            <mxPoint x="-180" y="710" as="sourcePoint" />
            <mxPoint x="164" y="710" as="targetPoint" />
          </mxGeometry>
        </mxCell>
        <mxCell id="6TMwM8I6Ds__LiO6crbM-38" value="" style="endArrow=none;html=1;rounded=0;exitX=0.463;exitY=0.029;exitDx=0;exitDy=0;exitPerimeter=0;" edge="1" parent="1">
          <mxGeometry width="50" height="50" relative="1" as="geometry">
            <mxPoint x="164.47000000000003" y="760" as="sourcePoint" />
            <mxPoint x="164" y="710" as="targetPoint" />
          </mxGeometry>
        </mxCell>
        <mxCell id="6TMwM8I6Ds__LiO6crbM-39" value="" style="endArrow=none;html=1;rounded=0;exitX=0.463;exitY=0.029;exitDx=0;exitDy=0;exitPerimeter=0;" edge="1" parent="1">
          <mxGeometry width="50" height="50" relative="1" as="geometry">
            <mxPoint x="-179.52999999999997" y="760" as="sourcePoint" />
            <mxPoint x="-180" y="710" as="targetPoint" />
          </mxGeometry>
        </mxCell>
        <mxCell id="6TMwM8I6Ds__LiO6crbM-40" value="Definición: Responde a cambios de datos o eventos asíncronos." style="rounded=1;whiteSpace=wrap;html=1;fillColor=#E6D0DE;" vertex="1" parent="1">
          <mxGeometry x="-1240" y="-660" width="160" height="70" as="geometry" />
        </mxCell>
        <mxCell id="6TMwM8I6Ds__LiO6crbM-41" value="Ventajas:&lt;br data-end=&quot;1720&quot; data-start=&quot;1717&quot;&gt;&lt;br/&gt;Ideal para apps interactivas y tiempo real.&lt;br data-end=&quot;1766&quot; data-start=&quot;1763&quot;&gt;&lt;br/&gt;Manejo eficiente de flujos dinámicos." style="rounded=1;whiteSpace=wrap;html=1;fillColor=#E1D5E7;" vertex="1" parent="1">
          <mxGeometry x="-1340" y="-480" width="280" height="120" as="geometry" />
        </mxCell>
        <mxCell id="6TMwM8I6Ds__LiO6crbM-42" value="Desventajas:&lt;br data-end=&quot;1821&quot; data-start=&quot;1818&quot;&gt;&lt;br/&gt;Curva de aprendizaje alta.&lt;br data-end=&quot;1850&quot; data-start=&quot;1847&quot;&gt;&lt;br/&gt;Depuración complicada." style="rounded=1;whiteSpace=wrap;html=1;fillColor=#E1D5E7;" vertex="1" parent="1">
          <mxGeometry x="-857" y="-480" width="290" height="120" as="geometry" />
        </mxCell>
        <mxCell id="6TMwM8I6Ds__LiO6crbM-43" value="&lt;font style=&quot;font-size: 24px;&quot;&gt;&lt;b&gt;Reactivo&lt;/b&gt;&lt;/font&gt;" style="ellipse;whiteSpace=wrap;html=1;aspect=fixed;fillColor=#FFCCCC;" vertex="1" parent="1">
          <mxGeometry x="-1028.5" y="-340" width="140" height="140" as="geometry" />
        </mxCell>
        <mxCell id="6TMwM8I6Ds__LiO6crbM-45" value="Ejemplos: RxJS, Project Reactor." style="rounded=1;whiteSpace=wrap;html=1;fillColor=#E6D0DE;" vertex="1" parent="1">
          <mxGeometry x="-840" y="-660" width="160" height="70" as="geometry" />
        </mxCell>
        <mxCell id="6TMwM8I6Ds__LiO6crbM-46" value="" style="endArrow=none;html=1;rounded=0;exitX=1;exitY=0.5;exitDx=0;exitDy=0;entryX=0;entryY=0.5;entryDx=0;entryDy=0;" edge="1" parent="1" source="6TMwM8I6Ds__LiO6crbM-40" target="6TMwM8I6Ds__LiO6crbM-45">
          <mxGeometry width="50" height="50" relative="1" as="geometry">
            <mxPoint x="-860" y="-610" as="sourcePoint" />
            <mxPoint x="-810" y="-660" as="targetPoint" />
          </mxGeometry>
        </mxCell>
        <mxCell id="6TMwM8I6Ds__LiO6crbM-47" value="" style="endArrow=none;html=1;rounded=0;" edge="1" parent="1">
          <mxGeometry width="50" height="50" relative="1" as="geometry">
            <mxPoint x="-1140" y="-530" as="sourcePoint" />
            <mxPoint x="-796" y="-530" as="targetPoint" />
          </mxGeometry>
        </mxCell>
        <mxCell id="6TMwM8I6Ds__LiO6crbM-48" value="" style="endArrow=none;html=1;rounded=0;exitX=0.463;exitY=0.029;exitDx=0;exitDy=0;exitPerimeter=0;" edge="1" parent="1">
          <mxGeometry width="50" height="50" relative="1" as="geometry">
            <mxPoint x="-795.53" y="-480" as="sourcePoint" />
            <mxPoint x="-796" y="-530" as="targetPoint" />
          </mxGeometry>
        </mxCell>
        <mxCell id="6TMwM8I6Ds__LiO6crbM-49" value="" style="endArrow=none;html=1;rounded=0;exitX=0.463;exitY=0.029;exitDx=0;exitDy=0;exitPerimeter=0;" edge="1" parent="1">
          <mxGeometry width="50" height="50" relative="1" as="geometry">
            <mxPoint x="-1139.53" y="-480" as="sourcePoint" />
            <mxPoint x="-1140" y="-530" as="targetPoint" />
          </mxGeometry>
        </mxCell>
        <mxCell id="6TMwM8I6Ds__LiO6crbM-50" value="Definición: Ejecución guiada por eventos (clics, señales)." style="rounded=1;whiteSpace=wrap;html=1;fillColor=#E6D0DE;" vertex="1" parent="1">
          <mxGeometry x="680" y="-690" width="160" height="70" as="geometry" />
        </mxCell>
        <mxCell id="6TMwM8I6Ds__LiO6crbM-51" value="Ventajas:&lt;br data-end=&quot;2023&quot; data-start=&quot;2020&quot;&gt;&lt;br/&gt;Ideal para interfaces gráficas.&lt;br data-end=&quot;2057&quot; data-start=&quot;2054&quot;&gt;&lt;br/&gt;Separa lógica y presentación." style="rounded=1;whiteSpace=wrap;html=1;fillColor=#E1D5E7;" vertex="1" parent="1">
          <mxGeometry x="570" y="-510" width="280" height="120" as="geometry" />
        </mxCell>
        <mxCell id="6TMwM8I6Ds__LiO6crbM-52" value="Desventajas:&lt;br data-end=&quot;2104&quot; data-start=&quot;2101&quot;&gt;&lt;br/&gt;Difícil depurar con eventos anidados.&lt;br data-end=&quot;2144&quot; data-start=&quot;2141&quot;&gt;&lt;br/&gt;Menor control del flujo global." style="rounded=1;whiteSpace=wrap;html=1;fillColor=#E1D5E7;" vertex="1" parent="1">
          <mxGeometry x="1050" y="-510" width="290" height="120" as="geometry" />
        </mxCell>
        <mxCell id="6TMwM8I6Ds__LiO6crbM-53" value="&lt;font style=&quot;font-size: 22px;&quot;&gt;&lt;b style=&quot;&quot;&gt;Dirigido por Eventos&lt;/b&gt;&lt;/font&gt;" style="ellipse;whiteSpace=wrap;html=1;aspect=fixed;fillColor=#FFCCCC;" vertex="1" parent="1">
          <mxGeometry x="890" y="-350" width="140" height="140" as="geometry" />
        </mxCell>
        <mxCell id="6TMwM8I6Ds__LiO6crbM-55" value="Ejemplos: JavaScript en navegadores, C# en GUIs." style="rounded=1;whiteSpace=wrap;html=1;fillColor=#E6D0DE;" vertex="1" parent="1">
          <mxGeometry x="1080" y="-690" width="160" height="70" as="geometry" />
        </mxCell>
        <mxCell id="6TMwM8I6Ds__LiO6crbM-56" value="" style="endArrow=none;html=1;rounded=0;exitX=1;exitY=0.5;exitDx=0;exitDy=0;entryX=0;entryY=0.5;entryDx=0;entryDy=0;" edge="1" parent="1" source="6TMwM8I6Ds__LiO6crbM-50" target="6TMwM8I6Ds__LiO6crbM-55">
          <mxGeometry width="50" height="50" relative="1" as="geometry">
            <mxPoint x="1060" y="-640" as="sourcePoint" />
            <mxPoint x="1110" y="-690" as="targetPoint" />
          </mxGeometry>
        </mxCell>
        <mxCell id="6TMwM8I6Ds__LiO6crbM-57" value="" style="endArrow=none;html=1;rounded=0;" edge="1" parent="1">
          <mxGeometry width="50" height="50" relative="1" as="geometry">
            <mxPoint x="780" y="-560" as="sourcePoint" />
            <mxPoint x="1124" y="-560" as="targetPoint" />
          </mxGeometry>
        </mxCell>
        <mxCell id="6TMwM8I6Ds__LiO6crbM-58" value="" style="endArrow=none;html=1;rounded=0;exitX=0.463;exitY=0.029;exitDx=0;exitDy=0;exitPerimeter=0;" edge="1" parent="1">
          <mxGeometry width="50" height="50" relative="1" as="geometry">
            <mxPoint x="1124.47" y="-510" as="sourcePoint" />
            <mxPoint x="1124" y="-560" as="targetPoint" />
          </mxGeometry>
        </mxCell>
        <mxCell id="6TMwM8I6Ds__LiO6crbM-59" value="" style="endArrow=none;html=1;rounded=0;exitX=0.463;exitY=0.029;exitDx=0;exitDy=0;exitPerimeter=0;" edge="1" parent="1">
          <mxGeometry width="50" height="50" relative="1" as="geometry">
            <mxPoint x="780.47" y="-510" as="sourcePoint" />
            <mxPoint x="780" y="-560" as="targetPoint" />
          </mxGeometry>
        </mxCell>
        <mxCell id="6TMwM8I6Ds__LiO6crbM-69" value="Definición: Relaciones/condiciones y el sistema busca soluciones." style="rounded=1;whiteSpace=wrap;html=1;fillColor=#E6D0DE;" vertex="1" parent="1">
          <mxGeometry x="-280" y="-940" width="160" height="70" as="geometry" />
        </mxCell>
        <mxCell id="6TMwM8I6Ds__LiO6crbM-70" value="Ventajas:&lt;br data-end=&quot;2327&quot; data-start=&quot;2324&quot;&gt;&lt;br/&gt;Útil en optimización y problemas complejos.&lt;br data-end=&quot;2373&quot; data-start=&quot;2370&quot;&gt;&lt;br/&gt;Solución automática de casos difíciles." style="rounded=1;whiteSpace=wrap;html=1;fillColor=#E1D5E7;" vertex="1" parent="1">
          <mxGeometry x="-400" y="-760" width="280" height="120" as="geometry" />
        </mxCell>
        <mxCell id="6TMwM8I6Ds__LiO6crbM-71" value="Desventajas:&lt;br data-end=&quot;2430&quot; data-start=&quot;2427&quot;&gt;&lt;br/&gt;Requiere motor especializado.&lt;br data-end=&quot;2462&quot; data-start=&quot;2459&quot;&gt;&lt;br/&gt;Rendimiento no siempre óptimo." style="rounded=1;whiteSpace=wrap;html=1;fillColor=#E1D5E7;" vertex="1" parent="1">
          <mxGeometry x="120" y="-760" width="290" height="120" as="geometry" />
        </mxCell>
        <mxCell id="6TMwM8I6Ds__LiO6crbM-72" value="&lt;font style=&quot;&quot;&gt;&lt;b style=&quot;&quot;&gt;&lt;font style=&quot;font-size: 18px;&quot;&gt;Con Restricciones&lt;/font&gt;&lt;br&gt;&lt;/b&gt;&lt;/font&gt;" style="ellipse;whiteSpace=wrap;html=1;aspect=fixed;fillColor=#FFCCCC;" vertex="1" parent="1">
          <mxGeometry x="-70" y="-620" width="140" height="140" as="geometry" />
        </mxCell>
        <mxCell id="6TMwM8I6Ds__LiO6crbM-74" value="Ejemplos: CLP (Constraint Logic Programming)." style="rounded=1;whiteSpace=wrap;html=1;fillColor=#E6D0DE;" vertex="1" parent="1">
          <mxGeometry x="120" y="-940" width="160" height="70" as="geometry" />
        </mxCell>
        <mxCell id="6TMwM8I6Ds__LiO6crbM-75" value="" style="endArrow=none;html=1;rounded=0;exitX=1;exitY=0.5;exitDx=0;exitDy=0;entryX=0;entryY=0.5;entryDx=0;entryDy=0;" edge="1" parent="1" source="6TMwM8I6Ds__LiO6crbM-69" target="6TMwM8I6Ds__LiO6crbM-74">
          <mxGeometry width="50" height="50" relative="1" as="geometry">
            <mxPoint x="100" y="-890" as="sourcePoint" />
            <mxPoint x="150" y="-940" as="targetPoint" />
          </mxGeometry>
        </mxCell>
        <mxCell id="6TMwM8I6Ds__LiO6crbM-76" value="" style="endArrow=none;html=1;rounded=0;" edge="1" parent="1">
          <mxGeometry width="50" height="50" relative="1" as="geometry">
            <mxPoint x="-180" y="-810" as="sourcePoint" />
            <mxPoint x="164" y="-810" as="targetPoint" />
          </mxGeometry>
        </mxCell>
        <mxCell id="6TMwM8I6Ds__LiO6crbM-77" value="" style="endArrow=none;html=1;rounded=0;exitX=0.463;exitY=0.029;exitDx=0;exitDy=0;exitPerimeter=0;" edge="1" parent="1">
          <mxGeometry width="50" height="50" relative="1" as="geometry">
            <mxPoint x="164.47000000000003" y="-760" as="sourcePoint" />
            <mxPoint x="164" y="-810" as="targetPoint" />
          </mxGeometry>
        </mxCell>
        <mxCell id="6TMwM8I6Ds__LiO6crbM-78" value="" style="endArrow=none;html=1;rounded=0;exitX=0.463;exitY=0.029;exitDx=0;exitDy=0;exitPerimeter=0;" edge="1" parent="1">
          <mxGeometry width="50" height="50" relative="1" as="geometry">
            <mxPoint x="-179.52999999999997" y="-760" as="sourcePoint" />
            <mxPoint x="-180" y="-810" as="targetPoint" />
          </mxGeometry>
        </mxCell>
        <mxCell id="6TMwM8I6Ds__LiO6crbM-81" value="&lt;font style=&quot;font-size: 45px;&quot;&gt;Paradigmas de la Programación&lt;/font&gt;" style="ellipse;whiteSpace=wrap;html=1;aspect=fixed;fillColor=#FFCCCC;" vertex="1" parent="1">
          <mxGeometry x="-190" y="-220" width="380" height="380" as="geometry" />
        </mxCell>
        <mxCell id="6TMwM8I6Ds__LiO6crbM-84" value="" style="shape=flexArrow;endArrow=classic;html=1;rounded=0;exitX=0.5;exitY=1;exitDx=0;exitDy=0;entryX=0.5;entryY=0;entryDx=0;entryDy=0;fillColor=#FF3333;" edge="1" parent="1" source="6TMwM8I6Ds__LiO6crbM-81" target="6TMwM8I6Ds__LiO6crbM-32">
          <mxGeometry width="50" height="50" relative="1" as="geometry">
            <mxPoint x="50" y="300" as="sourcePoint" />
            <mxPoint x="130" y="220" as="targetPoint" />
            <Array as="points" />
          </mxGeometry>
        </mxCell>
        <mxCell id="6TMwM8I6Ds__LiO6crbM-89" value="" style="shape=flexArrow;endArrow=classic;html=1;rounded=0;entryX=0.5;entryY=0;entryDx=0;entryDy=0;fillColor=#FF3333;" edge="1" parent="1">
          <mxGeometry width="50" height="50" relative="1" as="geometry">
            <mxPoint x="-961" as="sourcePoint" />
            <mxPoint x="-961.25" y="110" as="targetPoint" />
            <Array as="points" />
          </mxGeometry>
        </mxCell>
        <mxCell id="6TMwM8I6Ds__LiO6crbM-90" value="" style="rounded=0;whiteSpace=wrap;html=1;fillColor=#FF3333;" vertex="1" parent="1">
          <mxGeometry x="-966" y="-10" width="776" height="10" as="geometry" />
        </mxCell>
        <mxCell id="6TMwM8I6Ds__LiO6crbM-91" value="" style="rounded=0;whiteSpace=wrap;html=1;fillColor=#FF3333;" vertex="1" parent="1">
          <mxGeometry x="190" y="-10" width="760" height="10" as="geometry" />
        </mxCell>
        <mxCell id="6TMwM8I6Ds__LiO6crbM-92" value="" style="shape=flexArrow;endArrow=classic;html=1;rounded=0;entryX=0.5;entryY=0;entryDx=0;entryDy=0;fillColor=#FF3333;" edge="1" parent="1">
          <mxGeometry width="50" height="50" relative="1" as="geometry">
            <mxPoint x="949.95" y="-10" as="sourcePoint" />
            <mxPoint x="949.7" y="100" as="targetPoint" />
            <Array as="points" />
          </mxGeometry>
        </mxCell>
        <mxCell id="6TMwM8I6Ds__LiO6crbM-93" value="" style="shape=flexArrow;endArrow=classic;html=1;rounded=0;exitX=0.5;exitY=1;exitDx=0;exitDy=0;fillColor=#FF3333;" edge="1" parent="1">
          <mxGeometry width="50" height="50" relative="1" as="geometry">
            <mxPoint x="-0.6700000000000159" y="-220" as="sourcePoint" />
            <mxPoint x="-1" y="-480" as="targetPoint" />
            <Array as="points" />
          </mxGeometry>
        </mxCell>
        <mxCell id="6TMwM8I6Ds__LiO6crbM-94" value="" style="endArrow=none;html=1;rounded=0;entryX=0.5;entryY=0;entryDx=0;entryDy=0;" edge="1" parent="1" target="6TMwM8I6Ds__LiO6crbM-72">
          <mxGeometry width="50" height="50" relative="1" as="geometry">
            <mxPoint y="-900" as="sourcePoint" />
            <mxPoint x="220" y="-670" as="targetPoint" />
          </mxGeometry>
        </mxCell>
        <mxCell id="6TMwM8I6Ds__LiO6crbM-95" value="" style="endArrow=none;html=1;rounded=0;exitX=0.5;exitY=0;exitDx=0;exitDy=0;" edge="1" parent="1" source="6TMwM8I6Ds__LiO6crbM-43">
          <mxGeometry width="50" height="50" relative="1" as="geometry">
            <mxPoint x="-260" y="-190" as="sourcePoint" />
            <mxPoint x="-960" y="-630" as="targetPoint" />
          </mxGeometry>
        </mxCell>
        <mxCell id="6TMwM8I6Ds__LiO6crbM-96" value="" style="rounded=0;whiteSpace=wrap;html=1;fillColor=#FF3333;" vertex="1" parent="1">
          <mxGeometry x="-960" y="-90" width="776" height="10" as="geometry" />
        </mxCell>
        <mxCell id="6TMwM8I6Ds__LiO6crbM-97" value="" style="shape=flexArrow;endArrow=classic;html=1;rounded=0;entryX=0.5;entryY=1;entryDx=0;entryDy=0;fillColor=#FF3333;" edge="1" parent="1" target="6TMwM8I6Ds__LiO6crbM-43">
          <mxGeometry width="50" height="50" relative="1" as="geometry">
            <mxPoint x="-961" y="-80" as="sourcePoint" />
            <mxPoint x="-961.17" y="-190" as="targetPoint" />
            <Array as="points" />
          </mxGeometry>
        </mxCell>
        <mxCell id="6TMwM8I6Ds__LiO6crbM-100" value="" style="rounded=0;whiteSpace=wrap;html=1;fillColor=#FF3333;" vertex="1" parent="1">
          <mxGeometry x="182" y="-90" width="776" height="10" as="geometry" />
        </mxCell>
        <mxCell id="6TMwM8I6Ds__LiO6crbM-101" value="" style="shape=flexArrow;endArrow=classic;html=1;rounded=0;entryX=0.5;entryY=1;entryDx=0;entryDy=0;fillColor=#FF3333;" edge="1" parent="1">
          <mxGeometry width="50" height="50" relative="1" as="geometry">
            <mxPoint x="953.67" y="-80" as="sourcePoint" />
            <mxPoint x="956.34" y="-210" as="targetPoint" />
            <Array as="points" />
          </mxGeometry>
        </mxCell>
        <mxCell id="6TMwM8I6Ds__LiO6crbM-102" value="" style="endArrow=none;html=1;rounded=0;entryX=0.5;entryY=0;entryDx=0;entryDy=0;" edge="1" parent="1" target="6TMwM8I6Ds__LiO6crbM-53">
          <mxGeometry width="50" height="50" relative="1" as="geometry">
            <mxPoint x="960" y="-650" as="sourcePoint" />
            <mxPoint x="980" y="-280" as="targetPoint" />
          </mxGeometry>
        </mxCell>
      </root>
    </mxGraphModel>
  </diagram>
</mxfile>
